<svg width="389" height="174" viewBox="0 0 389 174" fill="none" xmlns="http://www.w3.org/2000/svg">
<rect x="362.468" width="26.5319" height="174" rx="13.266" fill="#7EB497"/>
<rect x="292.128" y="87" width="26.5319" height="87" rx="13.266" transform="rotate(-90 292.128 87)" fill="#7EB497"/>
<rect x="285.34" width="26.5319" height="87" rx="13.266" fill="#7EB497"/>
<rect x="77.1277" width="26.5319" height="174" rx="13.266" fill="#7EB497"/>
<rect x="6.78735" y="87" width="26.5319" height="87" rx="13.266" transform="rotate(-90 6.78735 87)" fill="#7EB497"/>
<rect width="26.5319" height="87" rx="13.266" fill="#7EB497"/>
<path d="M231.649 4.41626C245.456 4.41644 256.649 15.6093 256.649 29.4163V149C256.649 162.807 245.456 174 231.649 174H178.251C164.444 174 153.251 162.807 153.251 149V29.4163C153.251 15.6091 164.444 4.41626 178.251 4.41626H231.649ZM180.225 118.356C177.055 118.356 174.484 120.926 174.484 124.097C174.484 127.267 177.055 129.837 180.225 129.837H229.675C232.845 129.837 235.416 127.267 235.416 124.097C235.416 120.926 232.845 118.356 229.675 118.356H180.225ZM187.409 48.5784C181.291 48.5784 176.331 53.5391 176.331 59.6575V71.9465C176.331 78.0649 181.291 83.0256 187.409 83.0256C193.527 83.0256 198.487 78.0649 198.487 71.9465V59.6575C198.487 53.5391 193.527 48.5784 187.409 48.5784ZM224.337 48.5784C218.218 48.5785 213.259 53.5391 213.259 59.6575V71.9465C213.259 78.0649 218.218 83.0255 224.337 83.0256C230.455 83.0256 235.416 78.0649 235.416 71.9465V59.6575C235.416 53.5391 230.455 48.5784 224.337 48.5784Z" fill="#7EB497"/>
</svg>
